<svg xmlns="http://www.w3.org/2000/svg" xmlns:xlink="http://www.w3.org/1999/xlink" width="500" zoomAndPan="magnify" viewBox="0 0 375 374.999991" height="500" preserveAspectRatio="xMidYMid meet" version="1.0"><defs><clipPath id="f1fcb7022a"><path d="M 30 93.34375 L 352 93.34375 L 352 276 L 30 276 Z M 30 93.34375 " clip-rule="nonzero"/></clipPath></defs><g clip-path="url(#f1fcb7022a)"><path fill="#ffffff" d="M 348.453125 192.335938 C 332.253906 216.425781 281.042969 276.304688 190.605469 275.800781 C 97.972656 275.28125 49.953125 216.539062 33.78125 193.617188 C 29.714844 187.859375 29.515625 182.589844 33.714844 176.460938 C 49.953125 152.738281 100.046875 93.421875 190.390625 93.34375 C 282.714844 93.261719 334.8125 155.609375 348.289062 176.722656 C 352.265625 182.949219 352.265625 186.527344 348.453125 192.335938 Z M 190.695312 104.050781 C 130.523438 104.050781 90.699219 153.207031 90.699219 185.046875 C 90.699219 215.230469 129.691406 266.035156 191.175781 266.035156 C 254.550781 266.035156 292.65625 214.554688 292.0625 185.046875 C 292.457031 152.542969 251 104.050781 190.695312 104.050781 " fill-opacity="1" fill-rule="evenodd"/></g><path fill="#ffffff" d="M 190.886719 255.546875 C 230.621094 255.546875 262.835938 223.875 262.835938 184.808594 C 262.835938 145.738281 230.621094 114.066406 190.886719 114.066406 C 151.144531 114.066406 118.929688 145.738281 118.929688 184.808594 C 118.929688 223.875 151.144531 255.546875 190.886719 255.546875 " fill-opacity="1" fill-rule="evenodd"/></svg>