<?xml version="1.0" standalone="no"?>
<!DOCTYPE svg PUBLIC "-//W3C//DTD SVG 20010904//EN"
 "http://www.w3.org/TR/2001/REC-SVG-20010904/DTD/svg10.dtd">
<svg version="1.0" xmlns="http://www.w3.org/2000/svg"
 width="1024.000000pt" height="1024.000000pt" viewBox="0 0 1024.000000 1024.000000"
 preserveAspectRatio="xMidYMid meet">
<metadata>
Created by potrace 1.14, written by Peter Selinger 2001-2017
</metadata>
<g transform="translate(0.000000,1024.000000) scale(0.100000,-0.100000)"
fill="#000000" stroke="none">
<path d="M3302 8941 c-94 -33 -178 -122 -203 -214 -16 -61 -7 -154 21 -212 26
-53 59 -87 410 -425 123 -118 262 -253 311 -300 48 -47 118 -115 156 -152 l70
-66 -61 -7 c-72 -8 -131 -18 -176 -30 -3 0 -27 -5 -55 -10 -27 -4 -54 -9 -60
-10 -23 -5 -122 -26 -140 -29 -492 -97 -920 -313 -1268 -639 -92 -86 -218
-225 -278 -307 -55 -74 -139 -201 -139 -210 0 -5 -6 -15 -12 -22 -21 -22 -110
-192 -108 -203 1 -3 -5 -16 -12 -28 -35 -55 -116 -284 -144 -409 -2 -10 -6
-26 -8 -35 -9 -35 -38 -168 -42 -193 -2 -14 -7 -36 -9 -50 -3 -14 -8 -43 -11
-65 -3 -22 -8 -47 -9 -55 -2 -8 -6 -44 -10 -80 -3 -36 -8 -78 -11 -95 -31
-217 -19 -719 23 -963 3 -21 7 -44 8 -52 17 -125 81 -398 124 -528 141 -428
421 -826 784 -1116 149 -118 230 -171 402 -262 55 -30 99 -58 97 -64 -1 -6
-57 -91 -124 -188 -143 -208 -161 -249 -156 -347 6 -118 74 -215 188 -267 64
-30 166 -33 235 -7 98 37 126 67 295 319 46 69 87 127 90 130 4 3 13 16 20 30
7 14 31 50 54 80 22 30 41 56 42 58 1 2 32 -4 70 -12 119 -25 277 -55 329 -61
65 -8 100 -12 155 -20 234 -32 796 -38 990 -10 14 2 52 6 85 10 109 12 129 15
250 35 66 11 163 28 215 39 52 11 99 16 104 11 8 -8 127 -179 263 -380 125
-185 197 -239 322 -246 180 -10 332 123 337 294 3 106 -9 132 -205 414 -44 64
-81 119 -81 122 0 3 24 17 53 32 43 22 162 89 242 137 17 11 193 137 219 158
348 278 644 707 785 1139 23 71 84 331 101 429 5 33 15 89 21 124 6 34 12 78
14 97 13 138 18 203 21 255 4 78 4 408 0 460 -14 184 -25 282 -42 370 -2 11
-9 49 -14 85 -6 36 -17 92 -25 125 -8 33 -16 71 -19 85 -2 14 -7 32 -10 40 -3
8 -7 26 -10 40 -7 39 -51 177 -84 265 -69 182 -174 377 -295 545 -33 47 -63
87 -66 90 -4 3 -40 43 -81 90 -123 138 -220 229 -366 340 -291 223 -695 400
-1059 464 -47 9 -75 15 -93 20 -15 5 -45 11 -107 22 -11 2 -78 13 -150 25 -71
12 -132 23 -134 25 -4 4 37 44 393 387 110 106 277 269 371 362 155 154 173
175 187 223 61 201 -75 398 -281 408 -128 6 -184 -24 -352 -188 -58 -56 -208
-202 -333 -323 -126 -121 -267 -258 -316 -305 -48 -47 -137 -133 -197 -191
l-110 -106 -124 119 c-136 132 -545 528 -699 678 -251 244 -271 262 -326 287
-75 34 -170 40 -242 14z"/>
</g>
</svg>
