<?xml version="1.0" encoding="UTF-8"?>
<svg xmlns="http://www.w3.org/2000/svg" xmlns:xlink="http://www.w3.org/1999/xlink" width="193pt" height="193pt" viewBox="0 0 193 193" version="1.1">
<g id="surface1">
<path style=" stroke:none;fill-rule:evenodd;fill:rgb(100%,100%,100%);fill-opacity:1;" d="M 0 0.242188 L 192.757813 0.242188 L 192.757813 193 L 0 193 L 0 0.242188 "/>
<path style=" stroke:none;fill-rule:evenodd;fill:rgb(100%,100%,100%);fill-opacity:1;" d="M 29.339844 33.859375 L 123.050781 8.746094 L 163.414063 159.386719 L 69.703125 184.496094 L 29.339844 33.859375 "/>
<path style=" stroke:none;fill-rule:evenodd;fill:rgb(55.299377%,77.598572%,24.699402%);fill-opacity:1;" d="M 44.695313 62.816406 L 45.644531 70.402344 L 49.023438 83.011719 L 51.792969 93.351563 C 51.792969 93.351563 53.328125 109.160156 53.546875 110.992188 C 53.769531 112.828125 58.4375 119.144531 58.4375 119.144531 L 61.800781 134.734375 L 64.609375 147.226563 L 66.550781 153.464844 L 69.933594 154.992188 L 72.203125 154.382813 C 72.203125 154.382813 101.390625 146.292969 103.15625 145.820313 C 104.921875 145.34375 149.769531 134.140625 149.769531 134.140625 L 137.414063 85.007813 L 126.308594 39.597656 L 44.695313 62.816406 "/>
<path style=" stroke:none;fill-rule:evenodd;fill:rgb(13.699341%,12.199402%,12.5%);fill-opacity:1;" d="M 120.679688 49.800781 C 123.382813 50.171875 120.039063 55.113281 119.394531 55.703125 C 124.792969 59.699219 119.34375 64.425781 116.910156 62.644531 C 116.648438 62.882813 115.613281 65.320313 114.535156 67.96875 C 112.324219 73.410156 110.816406 79.15625 110.507813 85.03125 C 110.253906 89.847656 111.195313 92.089844 114.652344 102.714844 C 119.074219 116.316406 111.230469 121.9375 111.292969 123.417969 C 111.355469 124.894531 121.933594 127.507813 122.902344 128.445313 C 122.847656 129.132813 113.414063 142.535156 113.972656 137.0625 C 114.113281 135.675781 117.585938 130.964844 117.34375 130.738281 C 115.214844 128.761719 106.996094 131.085938 102.835938 127.671875 C 98.660156 124.246094 105.261719 114.136719 105.261719 114.136719 C 105.261719 114.136719 103.148438 114.730469 102.277344 114.9375 C 83.332031 110.945313 80.28125 137.261719 80.164063 137.292969 C 80.097656 137.308594 79.191406 135.492188 78.152344 133.535156 C 76.851563 131.085938 75.40625 129.207031 73.902344 126.949219 C 72.960938 125.53125 72.5625 124.3125 74.402344 124.121094 C 77.011719 124.964844 80.605469 129.390625 80.605469 129.390625 C 79.824219 125.410156 80.25 122.636719 80.5625 120.882813 C 81.921875 113.207031 90.472656 108.3125 96.277344 111.269531 C 96.25 104.90625 92.113281 96.523438 82.832031 96.273438 C 80.015625 96.199219 78.054688 96.425781 76.464844 98.953125 C 73.449219 103.734375 77.523438 109.085938 77.558594 109.882813 C 76.878906 110.015625 74.246094 109.035156 70.855469 111.609375 C 67.886719 114.785156 67.089844 114.046875 66.773438 112.644531 C 66.425781 111.082031 66.648438 110.210938 68.089844 108.613281 C 69.410156 107.140625 71.71875 106.113281 73.441406 105.808594 C 69.863281 99.300781 70.503906 92.109375 79.179688 91.300781 C 82.414063 91 85.703125 91.28125 85.703125 91.28125 C 85.703125 91.28125 80.691406 88.652344 76.691406 87.808594 C 73.324219 87.097656 69.429688 88.425781 67.636719 91.121094 C 66.109375 93.417969 65.304688 97.21875 67.542969 104.617188 C 59.621094 108.589844 60.347656 118.925781 67.027344 117.636719 C 70.171875 115.9375 70.5625 114.535156 74.261719 111.875 C 75.132813 111.25 76.320313 110.714844 77.917969 110.171875 C 78.101563 109.398438 74.976563 102.628906 77.820313 100.546875 C 81.054688 98.363281 85.992188 99.882813 89.359375 105.714844 C 84.703125 106.050781 76.992188 110.433594 77.382813 121.910156 C 75.285156 120.191406 71.792969 117.945313 68.863281 120.222656 C 67.230469 121.746094 66.667969 122.964844 68.050781 125.007813 C 70.066406 127.980469 75.183594 132.109375 80.316406 137.789063 C 80.316406 137.789063 80.519531 137.375 80.855469 136.699219 C 85.085938 128.242188 88.136719 119.550781 99.90625 118.730469 C 98.59375 120.519531 96.742188 123.503906 96.625 126.34375 C 96.484375 129.6875 98.441406 132.566406 103.113281 133.207031 C 106.457031 133.664063 110.617188 133.210938 110.617188 133.210938 C 110.617188 133.210938 106.078125 139.078125 108.363281 142.425781 C 103.582031 143.875 101.183594 143.371094 93.8125 146.007813 C 93.8125 146.007813 86.722656 148.847656 85.683594 149.503906 C 84.644531 150.15625 75.730469 151.421875 74.027344 151.691406 C 72.324219 151.960938 70.886719 152.90625 70.039063 153.226563 C 69.554688 153.410156 66.875 140.976563 66.941406 140.597656 C 67.203125 139.128906 62.132813 121.605469 61.71875 120.410156 C 61.304688 119.210938 54.261719 97.457031 54.261719 97.457031 L 62.269531 93.160156 L 52.71875 91.324219 C 52.71875 91.324219 46.859375 66.523438 45.507813 64.507813 C 46.566406 63.785156 50.917969 63.753906 55.4375 61.945313 C 59.960938 60.140625 65.082031 58.667969 65.082031 58.667969 L 75.664063 56.300781 L 90.457031 51.871094 L 106.75 48.15625 C 106.289063 47.753906 121.949219 43.300781 124.554688 44.035156 C 124.6875 45.085938 127.578125 57.070313 128.1875 58.769531 C 128.792969 60.46875 129.523438 67.113281 130.074219 69.863281 C 128.535156 70.824219 121.371094 75.175781 121.371094 75.175781 L 130.773438 74.460938 C 130.773438 74.460938 135.191406 87.222656 138.253906 96.226563 C 140.726563 103.492188 142.0625 110.589844 143.964844 118.039063 C 145.707031 124.863281 147.5625 131.816406 147.492188 131.9375 C 147.355469 132.171875 141.835938 131.980469 136.765625 135.007813 C 132.644531 137.46875 125.105469 136.59375 118.265625 139.167969 C 118.265625 139.167969 126.816406 130.207031 125.734375 126.914063 C 123.0625 124.742188 111.871094 125.347656 111.652344 123.417969 C 112.960938 120.59375 122.5 118.429688 120.441406 104.546875 C 118.179688 95.683594 114.820313 89.660156 115.3125 80.476563 C 115.722656 72.90625 118.367188 67.003906 119.03125 65.675781 C 120.574219 66.910156 128.753906 61.019531 122.210938 55.769531 C 123.609375 52.144531 122.347656 50.269531 121.4375 49.707031 C 121.058594 49.589844 120.679688 49.800781 120.679688 49.800781 Z M 151.640625 136.261719 L 153.726563 135.476563 L 148.394531 116.640625 L 144.839844 101.070313 L 138.765625 79.761719 L 135.726563 69.054688 C 135.824219 64.316406 132.128906 57.328125 131.523438 53.683594 L 130.007813 45.824219 L 127.382813 36.34375 L 121.757813 38.34375 L 113.046875 40.378906 L 109.0625 41.648438 L 104.675781 43.277344 L 82.902344 49.472656 L 56.433594 56.273438 C 50.792969 57.710938 46.082031 58.582031 39.214844 60.160156 L 39.335938 60.625 L 39.332031 60.625 L 43.585938 78.535156 L 48.613281 93.015625 L 53.4375 113.953125 L 61.222656 135.671875 L 65.769531 159.242188 L 76.824219 156.472656 C 88.453125 153.558594 99.730469 150.535156 112.121094 147.214844 C 118.835938 145.601563 123.066406 143.90625 130.691406 141.847656 L 137.992188 140.289063 C 143.230469 138.988281 147.160156 137.828125 151.640625 136.261719 "/>
<path style=" stroke:none;fill-rule:evenodd;fill:rgb(97.999573%,65.098572%,10.198975%);fill-opacity:1;" d="M 85.484375 91.285156 L 84.796875 91.222656 C 83.601563 91.160156 81.378906 91.097656 79.179688 91.300781 C 70.503906 92.109375 69.738281 99.277344 73.316406 105.78125 C 71.59375 106.089844 69.363281 107.066406 68.039063 108.535156 C 66.601563 110.136719 66.289063 111.121094 66.636719 112.679688 C 66.953125 114.082031 67.914063 114.894531 70.886719 111.71875 C 74.261719 109.15625 76.878906 110.089844 77.570313 109.964844 L 77.597656 109.78125 C 77.277344 108.679688 73.566406 103.546875 76.464844 98.953125 C 78.054688 96.425781 80.015625 96.199219 82.832031 96.273438 C 92.113281 96.523438 96.25 104.90625 96.277344 111.269531 C 90.472656 108.3125 81.921875 113.207031 80.5625 120.882813 C 80.25 122.636719 79.824219 125.410156 80.605469 129.390625 C 80.605469 129.390625 77.011719 124.964844 74.402344 124.121094 C 72.5625 124.3125 72.960938 125.53125 73.902344 126.949219 C 75.40625 129.207031 76.851563 131.085938 78.152344 133.535156 C 79.191406 135.492188 80.097656 137.308594 80.164063 137.292969 C 80.28125 137.261719 83.398438 111.195313 102.25 114.980469 C 103.121094 114.777344 104.890625 114.425781 105.105469 114.253906 C 105.105469 114.253906 98.554688 124.273438 102.730469 127.699219 C 106.890625 131.113281 115.074219 128.800781 117.203125 130.773438 C 117.445313 131 114.011719 135.703125 113.867188 137.089844 C 113.507813 142.734375 122.980469 129.058594 123.035156 128.371094 C 122.0625 127.4375 111.460938 124.867188 111.398438 123.386719 C 111.335938 121.910156 119.214844 116.277344 114.792969 102.679688 C 111.335938 92.050781 110.355469 89.820313 110.613281 85.003906 C 110.921875 79.128906 112.394531 73.390625 114.605469 67.949219 C 115.683594 65.304688 116.675781 62.984375 116.9375 62.746094 C 119.371094 64.527344 124.964844 59.65625 119.566406 55.65625 C 119.976563 55.285156 121.289063 53.214844 121.644531 51.617188 C 121.652344 51.550781 121.664063 51.484375 121.671875 51.417969 C 121.671875 51.414063 121.671875 51.414063 121.671875 51.414063 C 121.714844 51.152344 121.71875 50.90625 121.671875 50.691406 C 121.671875 50.6875 121.671875 50.6875 121.671875 50.6875 L 121.394531 50.15625 L 121.285156 50.058594 C 121.273438 50.050781 121.265625 50.046875 121.253906 50.039063 C 121.253906 50.035156 121.25 50.035156 121.246094 50.035156 C 121.246094 50.035156 121.246094 50.03125 121.246094 50.03125 C 121.234375 50.027344 121.226563 50.019531 121.21875 50.015625 C 121.203125 50.007813 121.1875 49.996094 121.175781 49.988281 C 121.160156 49.984375 121.148438 49.976563 121.132813 49.96875 C 121.128906 49.96875 121.128906 49.964844 121.121094 49.964844 C 121.113281 49.957031 121.101563 49.953125 121.089844 49.949219 C 121.085938 49.945313 121.085938 49.945313 121.082031 49.945313 C 121.078125 49.945313 121.078125 49.941406 121.074219 49.941406 C 121.054688 49.933594 121.03125 49.921875 121.007813 49.914063 C 121.003906 49.914063 121.003906 49.914063 121 49.910156 C 120.976563 49.902344 120.949219 49.894531 120.925781 49.886719 C 120.914063 49.886719 120.902344 49.882813 120.894531 49.878906 C 120.890625 49.878906 120.886719 49.878906 120.882813 49.875 C 120.855469 49.867188 120.828125 49.863281 120.800781 49.855469 C 120.789063 49.855469 120.78125 49.851563 120.769531 49.851563 C 120.742188 49.84375 120.710938 49.839844 120.679688 49.835938 C 120.675781 49.835938 120.671875 49.832031 120.664063 49.832031 C 120.664063 49.832031 120.667969 49.832031 120.667969 49.832031 C 120.667969 49.832031 120.667969 49.832031 120.667969 49.828125 C 120.671875 49.828125 120.671875 49.828125 120.675781 49.828125 C 120.675781 49.828125 120.675781 49.824219 120.675781 49.824219 C 120.679688 49.824219 120.679688 49.824219 120.679688 49.824219 C 120.6875 49.820313 120.703125 49.8125 120.722656 49.804688 C 120.707031 49.804688 120.695313 49.800781 120.679688 49.800781 C 120.679688 49.800781 120.714844 49.78125 120.769531 49.757813 L 120.296875 49.640625 C 120.296875 49.640625 119.640625 49.667969 118.730469 50.945313 C 118.023438 51.933594 117.105469 53.769531 116.726563 54.554688 C 117.28125 55.230469 117.777344 56.464844 117.6875 57.328125 C 116.785156 56.585938 115.738281 56.269531 114.769531 56.148438 C 112.777344 56.167969 111.855469 58.429688 114.664063 61.152344 C 114.664063 61.152344 103.726563 77.738281 103.347656 78.273438 C 103.347656 78.273438 103.351563 78.75 103.417969 77.90625 C 102.851563 78.371094 102.199219 77.820313 101.636719 77.734375 C 101.644531 77.75 101.652344 77.765625 101.65625 77.777344 C 101.390625 78.144531 99.210938 80.558594 98.609375 81.195313 C 95.015625 85.019531 89.359375 80.765625 94.21875 77.386719 C 94.992188 76.851563 98.496094 76.386719 98.496094 76.386719 L 96.496094 72.886719 L 87.316406 79.160156 L 92.117188 84.898438 C 91.664063 85.558594 91.25 85.984375 90.898438 86.410156 C 89.421875 88.183594 87.957031 89.007813 86.691406 89.222656 L 85.542969 91.199219 C 85.644531 91.253906 85.703125 91.28125 85.703125 91.28125 C 85.703125 91.28125 85.628906 91.273438 85.5 91.265625 L 85.484375 91.285156 "/>
<path style=" stroke:none;fill-rule:evenodd;fill:rgb(13.699341%,12.199402%,12.5%);fill-opacity:1;" d="M 103.28125 78.441406 C 103.28125 78.441406 103.011719 69.652344 110.3125 60.570313 C 107.828125 56.101563 111.664063 52.476563 115.0625 53.40625 C 116.730469 53.859375 117.894531 56.003906 117.746094 57.472656 C 114.15625 54.519531 110.84375 57.328125 114.820313 61.183594 C 114.820313 61.183594 103.660156 77.90625 103.28125 78.441406 "/>
<path style=" stroke:none;fill-rule:evenodd;fill:rgb(13.699341%,12.199402%,12.5%);fill-opacity:1;" d="M 56.722656 72.128906 L 61.183594 68.777344 L 67.484375 76.5 Z M 56.722656 72.128906 "/>
<path style=" stroke:none;fill-rule:evenodd;fill:rgb(13.699341%,12.199402%,12.5%);fill-opacity:1;" d="M 73.058594 63.007813 L 80.894531 70.207031 L 78.386719 61.398438 Z M 73.058594 63.007813 "/>
<path style=" stroke:none;fill-rule:evenodd;fill:rgb(13.699341%,12.199402%,12.5%);fill-opacity:1;" d="M 89.671875 90.347656 L 101.972656 80.171875 L 102.652344 99.082031 L 93.863281 93.222656 L 100.148438 94.820313 L 99.855469 85.464844 L 91.839844 91.6875 L 89.671875 90.347656 "/>
<path style=" stroke:none;fill-rule:evenodd;fill:rgb(13.699341%,12.199402%,12.5%);fill-opacity:1;" d="M 100.820313 50.613281 L 106.289063 49.824219 L 102.496094 60.621094 Z M 100.820313 50.613281 "/>
<path style=" stroke:none;fill-rule:evenodd;fill:rgb(13.699341%,12.199402%,12.5%);fill-opacity:1;" d="M 82.703125 138.703125 L 88.511719 127.152344 L 87.265625 141.507813 Z M 82.703125 138.703125 "/>
<path style=" stroke:none;fill-rule:evenodd;fill:rgb(13.699341%,12.199402%,12.5%);fill-opacity:1;" d="M 95.714844 62.171875 L 79.292969 76.175781 L 88.671875 83.53125 C 88.671875 83.53125 88.070313 83.679688 87.265625 83.742188 C 78.695313 84.441406 84.773438 93.96875 91.023438 86.449219 C 91.375 86.027344 91.785156 85.601563 92.242188 84.941406 L 87.507813 79.183594 L 96.429688 73.054688 L 98.496094 76.386719 C 98.496094 76.386719 94.84375 76.851563 94.070313 77.390625 C 89.210938 80.769531 95.097656 85.183594 98.691406 81.359375 C 99.292969 80.722656 101.390625 78.144531 101.65625 77.777344 C 100.402344 75.226563 95.875 62.019531 95.714844 62.171875 "/>
<path style=" stroke:none;fill-rule:evenodd;fill:rgb(13.699341%,12.199402%,12.5%);fill-opacity:1;" d="M 122.707031 91.363281 L 131.425781 89.6875 L 131.835938 95.632813 C 131.835938 95.632813 122.734375 91.355469 122.707031 91.363281 "/>
<path style=" stroke:none;fill-rule:evenodd;fill:rgb(13.699341%,12.199402%,12.5%);fill-opacity:1;" d="M 126.777344 115.339844 C 126.777344 115.339844 129.308594 109.824219 126.757813 103.949219 C 130.988281 106.066406 131.058594 113.851563 126.777344 115.339844 "/>
<path style=" stroke:none;fill-rule:evenodd;fill:rgb(13.699341%,12.199402%,12.5%);fill-opacity:1;" d="M 122.203125 117.386719 C 122.203125 117.386719 124.789063 110.152344 121.886719 104.101563 C 126.480469 105.878906 127.5 115.503906 122.203125 117.386719 "/>
<path style=" stroke:none;fill-rule:evenodd;fill:rgb(13.699341%,12.199402%,12.5%);fill-opacity:1;" d="M 49.503906 58.398438 L 39.441406 61.03125 L 32.847656 36.433594 L 40.203125 34.464844 C 42.140625 33.945313 43.816406 33.636719 45.230469 33.550781 C 46.644531 33.460938 47.917969 33.730469 49.058594 34.371094 C 50.195313 35.007813 51.070313 36.164063 51.675781 37.828125 C 52.136719 39.550781 52.089844 40.972656 51.527344 42.105469 C 50.972656 43.234375 50.457031 44.003906 49.988281 44.410156 C 50.042969 44.421875 50.304688 44.484375 50.765625 44.59375 C 51.230469 44.707031 51.753906 44.90625 52.339844 45.191406 C 52.917969 45.480469 53.492188 45.90625 54.050781 46.472656 C 54.613281 47.039063 55.042969 47.753906 55.355469 48.625 C 55.417969 48.78125 55.492188 49.023438 55.582031 49.351563 C 55.964844 50.785156 55.953125 52.117188 55.53125 53.351563 C 55.113281 54.585938 54.378906 55.636719 53.3125 56.503906 C 52.253906 57.371094 50.984375 58.003906 49.503906 58.398438 Z M 44.449219 48.855469 L 42.886719 49.273438 L 44.265625 54.414063 L 46.074219 53.929688 C 47.328125 53.59375 48.171875 53.136719 48.601563 52.558594 C 49.027344 51.984375 49.125 51.246094 48.886719 50.355469 C 48.605469 49.429688 48.113281 48.867188 47.417969 48.65625 C 46.714844 48.445313 45.726563 48.511719 44.449219 48.855469 Z M 41.78125 39.136719 L 40.28125 39.535156 L 41.609375 44.492188 L 43.171875 44.074219 C 43.976563 43.859375 44.625 43.433594 45.101563 42.804688 C 45.582031 42.175781 45.703125 41.410156 45.460938 40.511719 C 45.128906 39.660156 44.660156 39.15625 44.046875 39.003906 C 43.4375 38.851563 42.679688 38.894531 41.78125 39.136719 Z M 55.894531 56.6875 L 62.308594 26.570313 L 82.945313 49.4375 L 76.980469 52.515625 L 72.769531 47.597656 L 63.480469 50.085938 L 62.628906 56.429688 Z M 69.195313 42.972656 L 65.199219 38.105469 L 64.234375 44.300781 Z M 83.039063 50.003906 L 75.839844 23.148438 L 95.183594 33.09375 L 91.84375 20.628906 L 97.890625 18.316406 L 105.136719 45.359375 L 85.992188 35.652344 L 89.234375 47.753906 Z M 108.085938 22.183594 L 111.671875 35.570313 C 113.648438 35.039063 115.160156 34.3125 116.21875 33.382813 C 117.273438 32.460938 117.914063 31.429688 118.152344 30.292969 C 118.390625 29.152344 118.332031 27.941406 117.988281 26.652344 L 117.9375 26.472656 C 117.441406 24.800781 116.722656 23.589844 115.789063 22.839844 C 114.847656 22.085938 113.75 21.683594 112.496094 21.625 C 111.242188 21.574219 109.769531 21.761719 108.085938 22.183594 Z M 113.734375 41.1875 L 106.625 43.09375 L 100.015625 18.4375 L 107.496094 16.433594 C 110.230469 15.699219 112.742188 15.515625 115.027344 15.875 C 117.316406 16.242188 119.265625 17.1875 120.886719 18.722656 C 122.503906 20.253906 123.679688 22.34375 124.410156 25 C 124.917969 26.894531 125.015625 28.710938 124.707031 30.457031 C 124.398438 32.203125 123.742188 33.789063 122.738281 35.21875 C 121.738281 36.652344 120.464844 37.875 118.925781 38.890625 C 117.386719 39.910156 115.652344 40.675781 113.734375 41.1875 "/>
<path style=" stroke:none;fill-rule:evenodd;fill:rgb(13.699341%,12.199402%,12.5%);fill-opacity:1;" d="M 70.964844 178.625 L 65.738281 159.125 L 76.402344 156.265625 L 78.738281 160.152344 L 71.808594 162.007813 L 72.902344 166.078125 L 78.03125 164.703125 L 79.183594 169 L 74.050781 170.375 L 75.78125 176.828125 Z M 80.917969 175.453125 L 80.746094 154.019531 L 90.191406 164.859375 L 93.195313 150.730469 L 103.578125 169.332031 L 98.796875 171.070313 L 94.945313 163.027344 L 92.625 173.9375 L 85.277344 165.519531 L 85.910156 174.695313 L 80.917969 175.453125 "/>
<path style=" stroke:none;fill-rule:evenodd;fill:rgb(13.699341%,12.199402%,12.5%);fill-opacity:1;" d="M 120.253906 166.105469 L 114.703125 165.710938 C 114.804688 165.613281 115.144531 165.125 115.71875 164.253906 C 116.300781 163.382813 116.773438 162.613281 117.140625 161.949219 C 117.710938 160.988281 118.246094 159.898438 118.742188 158.6875 C 118.394531 158.914063 117.910156 159.113281 117.285156 159.28125 C 116.113281 159.542969 115.011719 159.503906 113.980469 159.15625 C 112.945313 158.816406 112.0625 158.226563 111.328125 157.40625 C 110.597656 156.582031 110.0625 155.609375 109.726563 154.5 C 109.324219 152.988281 109.332031 151.601563 109.75 150.335938 C 110.171875 149.070313 110.875 148.015625 111.855469 147.175781 C 112.839844 146.335938 113.933594 145.753906 115.144531 145.429688 C 116.167969 145.15625 117.171875 145.066406 118.144531 145.15625 C 119.117188 145.246094 120.023438 145.515625 120.863281 145.964844 C 121.707031 146.414063 122.433594 147.03125 123.035156 147.816406 C 123.644531 148.605469 124.089844 149.53125 124.375 150.597656 C 124.390625 150.65625 124.40625 150.738281 124.429688 150.84375 C 124.445313 150.941406 124.464844 151.023438 124.480469 151.082031 C 124.6875 152.097656 124.738281 153.125 124.628906 154.175781 C 124.519531 155.222656 124.355469 156.117188 124.148438 156.855469 C 123.9375 157.589844 123.625 158.597656 123.210938 159.867188 C 123.050781 160.375 122.746094 161.101563 122.289063 162.054688 C 121.84375 163.003906 121.433594 163.839844 121.0625 164.550781 C 120.695313 165.265625 120.425781 165.78125 120.253906 166.105469 Z M 117.734375 155.109375 C 118.445313 154.894531 118.976563 154.453125 119.324219 153.78125 C 119.671875 153.113281 119.746094 152.40625 119.550781 151.664063 C 119.417969 151.238281 119.179688 150.871094 118.835938 150.566406 C 118.492188 150.257813 118.097656 150.050781 117.648438 149.9375 C 117.199219 149.828125 116.753906 149.832031 116.304688 149.953125 C 115.824219 150.097656 115.417969 150.347656 115.09375 150.699219 C 114.765625 151.046875 114.546875 151.457031 114.429688 151.917969 C 114.316406 152.382813 114.320313 152.847656 114.445313 153.308594 C 114.660156 154.015625 115.082031 154.539063 115.71875 154.882813 C 116.351563 155.226563 117.023438 155.300781 117.734375 155.109375 Z M 130.726563 140.546875 L 136.300781 141.050781 C 136.222656 141.101563 135.890625 141.554688 135.308594 142.410156 C 134.71875 143.269531 134.214844 144.058594 133.785156 144.789063 C 133.261719 145.695313 132.734375 146.761719 132.203125 147.972656 C 132.199219 147.972656 132.335938 147.910156 132.617188 147.78125 C 132.902344 147.65625 133.167969 147.558594 133.425781 147.492188 C 134.554688 147.1875 135.652344 147.203125 136.730469 147.53125 C 137.804688 147.859375 138.738281 148.441406 139.535156 149.265625 C 140.328125 150.09375 140.902344 151.0625 141.25 152.175781 C 141.652344 153.671875 141.636719 155.050781 141.214844 156.324219 C 140.789063 157.597656 140.082031 158.660156 139.101563 159.511719 C 138.113281 160.363281 137.023438 160.949219 135.824219 161.269531 C 134.4375 161.640625 133.113281 161.683594 131.847656 161.394531 C 130.578125 161.109375 129.488281 160.511719 128.566406 159.59375 C 127.644531 158.675781 126.992188 157.492188 126.605469 156.046875 C 126.589844 155.996094 126.574219 155.921875 126.554688 155.8125 C 126.535156 155.710938 126.515625 155.625 126.503906 155.570313 C 126.324219 154.785156 126.25 153.996094 126.277344 153.195313 C 126.308594 152.394531 126.394531 151.636719 126.546875 150.910156 C 126.695313 150.1875 126.898438 149.421875 127.160156 148.613281 C 127.417969 147.800781 127.613281 147.191406 127.742188 146.789063 C 128.039063 145.761719 129.035156 143.683594 130.726563 140.546875 Z M 133.179688 151.605469 C 132.722656 151.746094 132.339844 151.984375 132.023438 152.332031 C 131.707031 152.679688 131.5 153.085938 131.394531 153.550781 C 131.285156 154.019531 131.300781 154.503906 131.4375 155.007813 C 131.679688 155.6875 132.105469 156.203125 132.730469 156.550781 C 133.351563 156.894531 134.015625 156.972656 134.722656 156.785156 C 135.1875 156.660156 135.582031 156.417969 135.910156 156.054688 C 136.238281 155.699219 136.460938 155.277344 136.574219 154.792969 C 136.691406 154.3125 136.6875 153.839844 136.5625 153.378906 C 136.425781 152.925781 136.179688 152.535156 135.835938 152.21875 C 135.488281 151.902344 135.078125 151.6875 134.613281 151.574219 C 134.140625 151.464844 133.660156 151.476563 133.179688 151.605469 Z M 147.859375 161.335938 L 144.140625 162.378906 L 144.476563 151.816406 L 149.738281 149.722656 Z M 147.839844 145.277344 L 145.289063 142.738281 L 153.378906 134.199219 L 158.824219 154.53125 L 154 156.277344 L 150.425781 142.933594 L 147.839844 145.277344 "/>
</g>
</svg>
