<?xml version="1.0" standalone="no"?>
<!DOCTYPE svg PUBLIC "-//W3C//DTD SVG 20010904//EN"
 "http://www.w3.org/TR/2001/REC-SVG-20010904/DTD/svg10.dtd">
<svg version="1.0" xmlns="http://www.w3.org/2000/svg"
 width="200.000000pt" height="165.000000pt" viewBox="0 0 200.000000 165.000000"
 preserveAspectRatio="xMidYMid meet">

<g transform="translate(0.000000,165.000000) scale(0.100000,-0.100000)"
fill="#370051" stroke="none">
<path d="M850 1625 c-316 -71 -510 -387 -430 -699 25 -100 61 -165 134 -243
67 -72 143 -121 236 -154 98 -34 258 -32 358 3 96 35 158 76 232 154 102 109
150 232 150 384 0 152 -48 275 -150 384 -34 35 -83 79 -110 96 -115 74 -288
105 -420 75z m250 -91 c235 -65 388 -320 336 -562 -48 -227 -252 -395 -476
-391 -81 1 -122 17 -49 18 166 3 320 105 392 259 56 121 48 293 -19 408 -35
60 -135 151 -198 180 -159 73 -362 36 -490 -88 -65 -63 -72 -60 -17 9 126 159
321 222 521 167z m-160 -125 c14 -1 -5 -5 -41 -9 -81 -10 -150 -44 -206 -102
-63 -64 -87 -126 -88 -223 0 -71 4 -88 33 -147 57 -116 158 -178 290 -178 93
0 152 22 217 81 57 53 90 109 105 180 9 40 9 39 6 -24 -14 -271 -341 -426
-580 -274 -145 92 -210 297 -147 460 29 74 114 167 184 201 54 27 147 47 182
40 11 -2 31 -4 45 -5z m-145 -129 c-67 -99 -54 -214 30 -288 80 -71 179 -79
267 -23 83 53 121 176 83 268 -24 58 -10 50 20 -11 99 -203 -84 -424 -300
-361 -104 30 -185 138 -185 246 0 56 35 141 76 183 19 20 37 36 39 36 2 0 -12
-23 -30 -50z"/>
<path d="M570 375 c0 -34 -1 -35 -42 -35 -59 0 -90 -18 -106 -62 -18 -47 -8
-122 19 -149 17 -17 31 -19 102 -17 l82 3 3 148 3 147 -31 0 c-28 0 -30 -3
-30 -35z m0 -155 l0 -70 -40 0 c-44 0 -60 18 -60 70 0 52 16 70 60 70 l40 0 0
-70z"/>
<path d="M1527 394 c-4 -4 -7 -13 -7 -21 0 -10 19 -13 76 -13 66 0 75 2 72 18
-3 14 -16 18 -69 20 -35 2 -68 0 -72 -4z"/>
<path d="M1173 366 c-27 -24 -28 -27 -33 -156 -5 -143 -8 -150 -66 -150 -51 0
-64 25 -64 118 0 81 0 82 -25 82 -25 0 -25 0 -25 -94 0 -87 2 -97 26 -125 30
-36 75 -47 131 -32 63 17 67 28 73 174 6 142 13 157 72 157 54 0 68 -28 68
-140 l0 -100 25 0 25 0 0 116 c0 114 0 116 -29 145 -26 26 -36 29 -90 29 -49
0 -65 -4 -88 -24z"/>
<path d="M39 321 c-22 -17 -24 -29 -27 -115 l-4 -96 31 0 30 0 3 88 3 87 33
10 c21 6 32 15 32 27 0 25 -70 25 -101 -1z"/>
<path d="M213 330 c-40 -16 -56 -54 -51 -120 6 -89 20 -100 130 -100 81 0 88
2 88 20 0 18 -7 20 -68 20 -67 0 -92 10 -92 37 0 9 18 13 64 13 89 0 96 4 96
55 0 35 -5 48 -26 64 -28 22 -99 28 -141 11z m105 -52 c24 -20 11 -28 -43 -28
-43 0 -55 3 -55 15 0 31 64 39 98 13z"/>
<path d="M710 327 c-38 -19 -52 -54 -46 -120 7 -87 20 -97 128 -97 81 0 88 2
88 20 0 18 -7 20 -68 20 -67 0 -92 10 -92 37 0 9 19 13 69 13 74 0 101 14 101
50 0 32 -21 67 -47 79 -32 15 -102 14 -133 -2z m112 -50 c15 -23 7 -27 -47
-27 -59 0 -68 10 -32 35 23 17 66 12 79 -8z"/>
<path d="M1420 215 l0 -115 25 0 25 0 0 115 0 115 -25 0 -25 0 0 -115z"/>
<path d="M1520 310 c0 -18 7 -20 54 -20 62 0 86 -7 86 -25 0 -8 -20 -14 -59
-17 -75 -5 -91 -18 -91 -73 0 -62 20 -75 112 -75 97 0 101 4 97 116 -5 108
-12 114 -121 114 -71 0 -78 -2 -78 -20z m140 -135 c0 -23 -4 -25 -44 -25 -46
0 -62 11 -52 35 4 10 20 15 51 15 41 0 45 -2 45 -25z"/>
<path d="M1783 306 c-25 -22 -28 -30 -28 -90 0 -88 19 -108 107 -114 53 -3 67
-1 90 17 35 28 51 83 38 131 -18 64 -42 80 -124 80 -44 0 -61 -5 -83 -24z
m138 -37 c17 -17 20 -29 16 -62 -9 -63 -56 -86 -105 -51 -27 19 -31 93 -6 118
22 23 70 20 95 -5z"/>
</g>
</svg>
